<svg width="33" height="32" viewBox="0 0 33 32" fill="none" xmlns="http://www.w3.org/2000/svg">
<path d="M27.9981 0.886669C29.603 2.7105 30.8331 4.8326 31.6179 7.13179C32.4027 9.43099 32.727 11.8623 32.5722 14.2868C32.4174 16.7113 31.7866 19.0816 30.7158 21.2623C29.645 23.4431 28.1552 25.3915 26.3313 26.9965C24.5075 28.6014 22.3854 29.8314 20.0862 30.6163C17.787 31.4011 15.3557 31.7254 12.9312 31.5706C10.5067 31.4158 8.1364 30.785 5.95567 29.7142C3.77493 28.6434 1.82646 27.1535 0.221513 25.3297L4.08407 21.9307C5.24266 23.2473 6.64922 24.3228 8.22346 25.0958C9.7977 25.8688 11.5088 26.3242 13.259 26.4359C15.0092 26.5476 16.7643 26.3135 18.4241 25.747C20.0838 25.1804 21.6157 24.2925 22.9323 23.1339C24.2489 21.9753 25.3244 20.5688 26.0974 18.9945C26.8704 17.4203 27.3258 15.7092 27.4375 13.959C27.5493 12.2088 27.3152 10.4537 26.7486 8.79392C26.1821 7.13417 25.2941 5.60226 24.1355 4.28566L27.9981 0.886669Z" fill="#052670"/>
</svg>
