<svg width="400" height="397" viewBox="0 0 400 397" fill="none" xmlns="http://www.w3.org/2000/svg">
<path d="M189.21 396.202C187.12 396.202 185.03 395.722 183.09 394.752L110.82 352.892C108.47 351.492 107.15 349.592 107.1 347.542C107.05 345.732 108.01 344.032 109.74 342.882L109.77 342.862L183.56 300.812C187.62 298.452 192.56 298.302 196.76 300.412L269.039 342.332C271.019 343.772 272.149 346.002 272.039 348.182C271.939 350.022 270.98 351.562 269.33 352.522L196.09 394.352C193.95 395.582 191.58 396.202 189.21 396.202ZM110.229 343.652C108.779 344.622 107.97 346.032 108.01 347.522C108.06 349.252 109.22 350.882 111.28 352.112L183.52 393.952C187.36 395.872 191.889 395.722 195.609 393.552L268.849 351.722C270.219 350.922 271.019 349.642 271.099 348.132C271.199 346.262 270.21 344.332 268.52 343.092L196.31 301.212C192.41 299.252 187.8 299.402 184 301.602L110.229 343.652Z" fill="url(#paint0_linear)"/>
<path opacity="0.01" d="M64.9094 310.733L177.809 246.653C184.449 242.793 192.589 242.543 199.459 245.983L308.469 309.233C314.099 313.343 315.189 321.553 308.969 325.173L196.999 388.863C190.469 392.663 182.459 392.913 175.709 389.543L66.7194 326.403C58.8894 321.743 59.3394 314.453 64.9094 310.733Z" fill="#FEFEFF"/>
<path opacity="0.01" d="M65.0788 310.722L177.829 246.722C184.459 242.862 192.599 242.612 199.449 246.062L308.329 309.242C313.949 313.342 315.039 321.542 308.829 325.162L196.999 388.762C190.479 392.562 182.479 392.812 175.729 389.432L66.8688 326.362C59.0688 321.722 59.5188 314.442 65.0788 310.722Z" fill="#FEFDFF"/>
<path opacity="0.01" d="M65.2392 310.723L177.849 246.803C184.479 242.953 192.599 242.703 199.449 246.143L308.189 309.243C313.809 313.343 314.889 321.533 308.679 325.143L196.999 388.663C190.489 392.453 182.499 392.703 175.759 389.333L67.0392 326.343C59.2392 321.703 59.6892 314.433 65.2392 310.723Z" fill="#FDFCFF"/>
<path opacity="0.0122" d="M65.4096 310.713L177.87 246.873C184.49 243.023 192.6 242.773 199.44 246.213L308.05 309.233C313.66 313.323 314.75 321.503 308.54 325.113L197 388.563C190.49 392.353 182.52 392.603 175.79 389.233L67.1996 326.323C59.4196 321.693 59.8696 314.423 65.4096 310.713Z" fill="#FCFBFF"/>
<path opacity="0.0152" d="M65.5788 310.703L177.899 246.943C184.509 243.103 192.609 242.853 199.439 246.283L307.909 309.223C313.509 313.313 314.599 321.473 308.399 325.083L197.009 388.453C190.509 392.233 182.549 392.483 175.819 389.123L67.3688 326.293C59.5988 321.673 60.0488 314.413 65.5788 310.703Z" fill="#FCFAFF"/>
<path opacity="0.0183" d="M65.7497 310.703L177.92 247.023C184.52 243.183 192.61 242.943 199.44 246.363L307.78 309.223C313.38 313.303 314.46 321.463 308.27 325.063L197.02 388.353C190.53 392.133 182.57 392.383 175.86 389.023L67.5397 326.273C59.7697 321.653 60.2197 314.403 65.7497 310.703Z" fill="#FBF9FF"/>
<path opacity="0.0213" d="M65.919 310.692L177.949 247.102C184.539 243.272 192.619 243.022 199.439 246.442L307.639 309.222C313.229 313.302 314.309 321.442 308.129 325.042L197.019 388.252C190.539 392.022 182.589 392.272 175.889 388.922L67.709 326.242C59.949 321.632 60.399 314.392 65.919 310.692Z" fill="#FBF8FF"/>
<path opacity="0.0244" d="M66.0894 310.692L177.969 247.182C184.559 243.352 192.629 243.112 199.429 246.522L307.499 309.232C313.079 313.302 314.159 321.442 307.989 325.032L197.029 388.162C190.559 391.932 182.619 392.182 175.919 388.832L67.8694 326.232C60.1294 321.612 60.5694 314.382 66.0894 310.692Z" fill="#FAF7FE"/>
<path opacity="0.0274" d="M66.2596 310.683L178 247.253C184.58 243.433 192.64 243.183 199.44 246.593L307.37 309.223C312.95 313.293 314.02 321.413 307.86 325.003L197.04 388.053C190.57 391.813 182.65 392.063 175.96 388.723L68.0396 326.203C60.3096 321.593 60.7496 314.373 66.2596 310.683Z" fill="#F9F6FE"/>
<path opacity="0.0305" d="M66.4295 310.683L178.02 247.333C184.59 243.513 192.64 243.273 199.43 246.673L307.23 309.223C312.8 313.283 313.88 321.403 307.72 324.983L197.05 387.953C190.59 391.713 182.68 391.963 175.99 388.623L68.2095 326.183C60.4795 321.573 60.9295 314.363 66.4295 310.683Z" fill="#F9F5FE"/>
<path opacity="0.0335" d="M66.5989 310.673L178.049 247.403C184.609 243.593 192.649 243.343 199.429 246.743L307.089 309.213C312.649 313.273 313.729 321.373 307.579 324.953L197.049 387.843C190.599 391.593 182.689 391.843 176.019 388.513L68.3689 326.153C60.6589 321.553 61.0989 314.353 66.5989 310.673Z" fill="#F8F4FE"/>
<path opacity="0.0366" d="M66.7691 310.673L178.069 247.483C184.619 243.673 192.649 243.433 199.429 246.823L306.959 309.213C312.509 313.263 313.589 321.363 307.449 324.933L197.059 387.743C190.619 391.493 182.719 391.743 176.059 388.413L68.5491 326.123C60.8391 321.533 61.2791 314.343 66.7691 310.673Z" fill="#F7F3FE"/>
<path opacity="0.0396" d="M66.9391 310.663L178.099 247.553C184.639 243.753 192.669 243.503 199.429 246.893L306.819 309.213C312.369 313.263 313.439 321.343 307.309 324.913L197.069 387.643C190.639 391.383 182.749 391.633 176.089 388.313L68.7091 326.103C61.0091 321.513 61.4591 314.333 66.9391 310.663Z" fill="#F7F2FE"/>
<path opacity="0.0427" d="M67.1094 310.663L178.119 247.633C184.659 243.833 192.669 243.593 199.419 246.983L306.679 309.223C312.219 313.263 313.289 321.343 307.169 324.903L197.069 387.543C190.649 391.283 182.769 391.533 176.119 388.203L68.8794 326.073C61.1894 321.493 61.6294 314.323 67.1094 310.663Z" fill="#F6F1FE"/>
<path opacity="0.0457" d="M67.2796 310.653L178.15 247.703C184.68 243.913 192.68 243.663 199.43 247.053L306.56 309.213C312.09 313.253 313.16 321.313 307.05 324.873L197.08 387.443C190.66 391.183 182.8 391.423 176.16 388.103L69.0496 326.053C61.3696 321.483 61.8096 314.313 67.2796 310.653Z" fill="#F5F0FE"/>
<path opacity="0.0488" d="M67.4495 310.643L178.169 247.783C184.689 243.993 192.679 243.753 199.419 247.133L306.409 309.213C311.939 313.243 313.01 321.303 306.9 324.853L197.09 387.343C190.68 391.073 182.82 391.323 176.19 388.003L69.2195 326.033C61.5395 321.463 61.9895 314.303 67.4495 310.643Z" fill="#F5EFFE"/>
<path opacity="0.0518" d="M67.6198 310.642L178.19 247.862C184.7 244.082 192.68 243.832 199.41 247.212L306.27 309.212C311.79 313.242 312.86 321.282 306.76 324.832L197.1 387.232C190.7 390.962 182.85 391.202 176.23 387.892L69.3898 325.992C61.7198 321.442 62.1598 314.292 67.6198 310.642Z" fill="#F4EEFE"/>
<path opacity="0.0549" d="M67.7892 310.633L178.219 247.933C184.719 244.153 192.689 243.913 199.419 247.283L306.139 309.213C311.649 313.233 312.719 321.273 306.629 324.813L197.099 387.133C190.709 390.853 182.869 391.103 176.249 387.793L69.5491 325.973C61.8991 321.423 62.3392 314.283 67.7892 310.633Z" fill="#F3EDFE"/>
<path opacity="0.0579" d="M67.9592 310.633L178.239 248.013C184.739 244.243 192.699 243.993 199.409 247.363L305.999 309.203C311.509 313.223 312.569 321.243 306.479 324.783L197.099 387.023C190.719 390.743 182.889 390.983 176.279 387.683L69.7092 325.943C62.0692 321.403 62.5092 314.273 67.9592 310.633Z" fill="#F3ECFE"/>
<path opacity="0.061" d="M68.1293 310.623L178.269 248.083C184.759 244.313 192.709 244.073 199.409 247.433L305.859 309.203C311.359 313.213 312.419 321.233 306.339 324.763L197.109 386.923C190.729 390.633 182.919 390.883 176.319 387.583L69.8893 325.923C62.2493 321.383 62.6893 314.263 68.1293 310.623Z" fill="#F2EBFE"/>
<path opacity="0.064" d="M68.2997 310.623L178.29 248.163C184.77 244.403 192.71 244.153 199.41 247.513L305.73 309.203C311.22 313.213 312.28 321.213 306.21 324.753L197.12 386.833C190.75 390.543 182.94 390.783 176.35 387.493L70.0497 325.913C62.4297 321.363 62.8697 314.253 68.2997 310.623Z" fill="#F2EAFE"/>
<path opacity="0.0671" d="M68.4595 310.612L178.31 248.232C184.78 244.472 192.71 244.232 199.4 247.582L305.58 309.192C311.06 313.192 312.13 321.192 306.06 324.722L197.12 386.722C190.76 390.422 182.96 390.672 176.38 387.382L70.2095 325.872C62.6095 321.342 63.0395 314.242 68.4595 310.612Z" fill="#F1E9FE"/>
<path opacity="0.0701" d="M68.6294 310.612L178.329 248.312C184.789 244.552 192.709 244.312 199.389 247.662L305.439 309.192C310.919 313.192 311.979 321.172 305.919 324.702L197.119 386.622C190.769 390.322 182.979 390.562 176.409 387.282L70.3794 325.852C62.7794 321.322 63.2194 314.232 68.6294 310.612Z" fill="#F0E8FD"/>
<path opacity="0.0732" d="M68.7988 310.603L178.359 248.383C184.809 244.633 192.719 244.393 199.399 247.733L305.309 309.193C310.779 313.183 311.839 321.163 305.789 324.683L197.129 386.523C190.789 390.213 183.009 390.463 176.439 387.183L70.5388 325.833C62.9588 321.303 63.3988 314.223 68.7988 310.603Z" fill="#F0E7FD"/>
<path opacity="0.0762" d="M68.969 310.603L178.379 248.463C184.829 244.713 192.729 244.473 199.389 247.813L305.169 309.193C310.629 313.183 311.689 321.143 305.649 324.663L197.139 386.423C190.799 390.113 183.039 390.353 176.479 387.083L70.719 325.813C63.139 321.293 63.569 314.213 68.969 310.603Z" fill="#EFE6FD"/>
<path opacity="0.0793" d="M69.1391 310.593L178.409 248.543C184.849 244.803 192.739 244.563 199.389 247.903L305.029 309.203C310.489 313.183 311.539 321.143 305.509 324.653L197.139 386.333C190.809 390.013 183.049 390.263 176.499 386.983L70.8691 325.793C63.3091 321.273 63.7491 314.203 69.1391 310.593Z" fill="#EEE5FD"/>
<path opacity="0.0823" d="M69.3092 310.582L178.429 248.612C184.859 244.872 192.739 244.632 199.389 247.972L304.899 309.192C310.349 313.172 311.399 321.112 305.379 324.622L197.159 386.222C190.839 389.902 183.089 390.142 176.549 386.872L71.0592 325.752C63.4892 321.252 63.9292 314.192 69.3092 310.582Z" fill="#EEE4FD"/>
<path opacity="0.0854" d="M69.4794 310.583L178.459 248.693C184.879 244.963 192.749 244.723 199.389 248.053L304.769 309.193C310.209 313.163 311.269 321.093 305.249 324.603L197.169 386.123C190.859 389.793 183.119 390.043 176.589 386.773L71.2294 325.733C63.6694 321.233 64.0994 314.183 69.4794 310.583Z" fill="#EDE3FD"/>
<path opacity="0.0884" d="M69.6495 310.573L178.479 248.763C184.889 245.033 192.75 244.793 199.38 248.123L304.62 309.193C310.06 313.163 311.109 321.083 305.099 324.583L197.159 386.023C190.859 389.693 183.129 389.933 176.599 386.673L71.3795 325.713C63.8395 321.213 64.2795 314.173 69.6495 310.573Z" fill="#ECE2FD"/>
<path opacity="0.0915" d="M69.8196 310.573L178.51 248.843C184.91 245.123 192.76 244.883 199.39 248.203L304.5 309.193C309.93 313.153 310.98 321.063 304.98 324.563L197.19 385.923C190.89 389.583 183.18 389.833 176.66 386.573L71.5696 325.693C64.0196 321.193 64.4496 314.163 69.8196 310.573Z" fill="#ECE1FD"/>
<path opacity="0.0945" d="M69.989 310.563L178.529 248.913C184.929 245.193 192.769 244.953 199.379 248.273L304.349 309.183C309.769 313.143 310.819 321.043 304.829 324.533L197.179 385.803C190.889 389.463 183.179 389.703 176.679 386.453L71.729 325.653C64.199 321.173 64.629 314.153 69.989 310.563Z" fill="#EBE0FD"/>
<path opacity="0.0976" d="M70.1589 310.562L178.559 248.992C184.949 245.282 192.779 245.042 199.379 248.352L304.219 309.182C309.639 313.132 310.679 321.022 304.699 324.512L197.199 385.702C190.919 389.362 183.219 389.602 176.719 386.352L71.8989 325.622C64.3689 321.152 64.8089 314.142 70.1589 310.562Z" fill="#EBDFFD"/>
<path opacity="0.1006" d="M70.3291 310.552L178.579 249.062C184.959 245.352 192.779 245.112 199.379 248.422L304.079 309.172C309.489 313.122 310.539 321.002 304.559 324.482L197.199 385.592C190.929 389.242 183.239 389.482 176.749 386.242L72.0692 325.592C64.5492 321.132 64.9791 314.132 70.3291 310.552Z" fill="#EADEFD"/>
<path opacity="0.1037" d="M70.4995 310.553L178.599 249.143C184.969 245.443 192.779 245.203 199.369 248.503L303.939 309.183C309.339 313.123 310.389 320.993 304.419 324.473L197.2 385.503C190.94 389.153 183.26 389.393 176.78 386.153L72.2295 325.583C64.7295 321.113 65.1595 314.123 70.4995 310.553Z" fill="#E9DDFD"/>
<path opacity="0.1067" d="M70.669 310.543L178.629 249.223C184.989 245.523 192.789 245.283 199.369 248.583L303.799 309.183C309.189 313.113 310.239 320.983 304.269 324.453L197.199 385.403C190.939 389.043 183.279 389.283 176.799 386.053L72.379 325.563C64.909 321.093 65.339 314.113 70.669 310.543Z" fill="#E9DCFD"/>
<path opacity="0.1098" d="M70.8398 310.543L178.65 249.303C185.01 245.613 192.8 245.373 199.37 248.663L303.67 309.183C309.06 313.113 310.1 320.963 304.14 324.433L197.21 385.303C190.96 388.943 183.3 389.183 176.84 385.953L72.5598 325.543C65.0798 321.083 65.5098 314.103 70.8398 310.543Z" fill="#E8DBFD"/>
<path opacity="0.1128" d="M71.0091 310.533L178.679 249.373C185.029 245.683 192.809 245.443 199.369 248.733L303.529 309.173C308.909 313.093 309.949 320.943 303.999 324.403L197.219 385.193C190.979 388.823 183.329 389.063 176.869 385.843L72.7191 325.503C65.2591 321.063 65.6891 314.093 71.0091 310.533Z" fill="#E7DAFD"/>
<path opacity="0.1159" d="M71.1794 310.523L178.699 249.443C185.039 245.763 192.809 245.523 199.359 248.813L303.389 309.173C308.759 313.093 309.799 320.923 303.859 324.383L197.219 385.093C190.989 388.723 183.349 388.963 176.899 385.733L72.8894 325.473C65.4394 321.043 65.8694 314.083 71.1794 310.523Z" fill="#E7D9FC"/>
<path opacity="0.1189" d="M71.3492 310.523L178.729 249.523C185.059 245.843 192.819 245.603 199.369 248.893L303.259 309.173C308.629 313.083 309.669 320.913 303.729 324.363L197.239 384.993C191.019 388.613 183.389 388.853 176.949 385.633L73.0692 325.453C65.6092 321.023 66.0392 314.073 71.3492 310.523Z" fill="#E6D8FC"/>
<path opacity="0.122" d="M71.5196 310.513L178.75 249.593C185.07 245.923 192.82 245.683 199.36 248.963L303.12 309.173C308.48 313.083 309.52 320.893 303.59 324.343L197.24 384.893C191.02 388.513 183.41 388.753 176.97 385.533L73.2296 325.433C65.7896 321.003 66.2196 314.063 71.5196 310.513Z" fill="#E5D7FC"/>
<path opacity="0.125" d="M71.6793 310.513L178.769 249.673C185.079 246.003 192.819 245.763 199.349 249.043L302.969 309.173C308.319 313.073 309.359 320.883 303.439 324.323L197.229 384.793C191.019 388.403 183.409 388.643 176.989 385.433L73.3993 325.413C65.9693 320.983 66.3893 314.053 71.6793 310.513Z" fill="#E5D6FC"/>
<path opacity="0.128" d="M71.8493 310.502L178.789 249.742C185.099 246.082 192.829 245.842 199.339 249.112L302.829 309.162C308.179 313.062 309.209 320.852 303.299 324.292L197.239 384.682C191.039 388.292 183.439 388.532 177.029 385.322L73.5593 325.372C66.1393 320.962 66.5693 314.042 71.8493 310.502Z" fill="#E4D5FC"/>
<path opacity="0.1311" d="M72.0196 310.502L178.82 249.822C185.12 246.162 192.84 245.922 199.35 249.192L302.71 309.162C308.05 313.052 309.08 320.842 303.18 324.272L197.26 384.582C191.07 388.182 183.48 388.422 177.07 385.222L73.7296 325.352C66.3196 320.942 66.7496 314.032 72.0196 310.502Z" fill="#E3D4FC"/>
<path opacity="0.1341" d="M72.1889 310.493L178.839 249.893C185.129 246.243 192.839 246.003 199.339 249.263L302.559 309.153C307.889 313.043 308.919 320.813 303.029 324.243L197.259 384.473C191.079 388.073 183.499 388.313 177.099 385.113L73.8989 325.323C66.4989 320.923 66.9189 314.023 72.1889 310.493Z" fill="#E3D3FC"/>
<path opacity="0.1372" d="M72.3589 310.493L178.869 249.983C185.149 246.333 192.849 246.093 199.339 249.353L302.429 309.173C307.749 313.053 308.789 320.823 302.899 324.243L197.269 384.393C191.099 387.983 183.519 388.223 177.129 385.033L74.0589 325.323C66.6689 320.903 67.0989 314.013 72.3589 310.493Z" fill="#E2D2FC"/>
<path opacity="0.1402" d="M72.529 310.483L178.889 250.053C185.159 246.403 192.849 246.173 199.339 249.423L302.289 309.163C307.609 313.043 308.639 320.793 302.759 324.213L197.279 384.283C191.109 387.873 183.549 388.113 177.169 384.923L74.239 325.293C66.849 320.893 67.279 314.003 72.529 310.483Z" fill="#E2D1FC"/>
<path opacity="0.1433" d="M72.6993 310.483L178.919 250.133C185.189 246.493 192.859 246.253 199.339 249.503L302.159 309.163C307.469 313.033 308.499 320.783 302.629 324.193L197.289 384.183C191.129 387.763 183.579 388.003 177.209 384.823L74.4093 325.263C67.0293 320.873 67.4493 313.993 72.6993 310.483Z" fill="#E1D0FC"/>
<path opacity="0.1463" d="M72.8689 310.473L178.939 250.203C185.199 246.563 192.869 246.333 199.329 249.573L302.009 309.153C307.309 313.023 308.339 320.753 302.479 324.163L197.279 384.063C191.129 387.643 183.589 387.883 177.219 384.703L74.5489 325.223C67.2089 320.853 67.6289 313.983 72.8689 310.473Z" fill="#E0CFFC"/>
<path opacity="0.1494" d="M73.0396 310.472L178.97 250.282C185.22 246.652 192.88 246.412 199.34 249.652L301.89 309.152C307.19 313.012 308.21 320.742 302.36 324.142L197.3 383.972C191.16 387.552 183.63 387.782 177.27 384.612L74.7396 325.212C67.3796 320.832 67.7996 313.972 73.0396 310.472Z" fill="#E0CEFC"/>
<path opacity="0.1524" d="M73.209 310.463L178.989 250.353C185.229 246.723 192.879 246.493 199.329 249.723L301.739 309.153C307.029 313.013 308.049 320.723 302.209 324.123L197.299 383.873C191.169 387.443 183.639 387.683 177.299 384.503L74.899 325.183C67.559 320.813 67.979 313.963 73.209 310.463Z" fill="#DFCDFC"/>
<path opacity="0.1555" d="M73.3792 310.453L179.009 250.423C185.239 246.803 192.879 246.563 199.319 249.803L301.599 309.153C306.879 313.003 307.909 320.703 302.069 324.103L197.309 383.763C191.179 387.333 183.669 387.563 177.329 384.393L75.0692 325.153C67.7392 320.793 68.1592 313.953 73.3792 310.453Z" fill="#DECCFC"/>
<path opacity="0.1585" d="M73.5492 310.453L179.039 250.503C185.259 246.883 192.889 246.653 199.329 249.883L301.469 309.153C306.749 313.003 307.769 320.693 301.929 324.083L197.309 383.663C191.189 387.223 183.689 387.463 177.359 384.293L75.2292 325.123C67.9092 320.773 68.3292 313.943 73.5492 310.453Z" fill="#DECBFC"/>
<path opacity="0.1616" d="M73.7195 310.443L179.059 250.573C185.279 246.963 192.889 246.723 199.319 249.953L301.329 309.143C306.599 312.983 307.619 320.663 301.789 324.063L197.309 383.563C191.199 387.123 183.709 387.353 177.379 384.193L75.3995 325.113C68.0895 320.753 68.5095 313.933 73.7195 310.443Z" fill="#DDCAFB"/>
<path opacity="0.1646" d="M73.8897 310.442L179.09 250.662C185.3 247.052 192.91 246.822 199.32 250.042L301.2 309.142C306.46 312.982 307.48 320.652 301.66 324.042L197.33 383.462C191.23 387.012 183.75 387.252 177.43 384.092L75.5697 325.082C68.2697 320.732 68.6897 313.922 73.8897 310.442Z" fill="#DCC9FB"/>
<path opacity="0.1677" d="M74.0597 310.433L179.11 250.733C185.31 247.133 192.91 246.893 199.32 250.113L301.06 309.143C306.32 312.973 307.33 320.633 301.52 324.023L197.33 383.363C191.24 386.913 183.76 387.143 177.46 383.993L75.7396 325.063C68.4396 320.713 68.8597 313.913 74.0597 310.433Z" fill="#DCC8FB"/>
<path opacity="0.1707" d="M74.229 310.433L179.139 250.813C185.329 247.213 192.919 246.983 199.319 250.193L300.919 309.153C306.169 312.983 307.179 320.633 301.379 324.013L197.339 383.273C191.249 386.813 183.789 387.053 177.489 383.903L75.899 325.053C68.619 320.693 69.039 313.903 74.229 310.433Z" fill="#DBC7FB"/>
<path opacity="0.1738" d="M74.3993 310.423L179.159 250.883C185.339 247.293 192.919 247.053 199.309 250.263L300.779 309.143C306.019 312.963 307.039 320.603 301.239 323.983L197.339 383.163C191.259 386.703 183.809 386.933 177.519 383.793L76.0693 325.013C68.7993 320.683 69.2193 313.893 74.3993 310.423Z" fill="#DBC6FB"/>
<path opacity="0.1768" d="M74.569 310.423L179.189 250.963C185.369 247.373 192.929 247.143 199.319 250.343L300.659 309.143C305.889 312.963 306.909 320.593 301.119 323.963L197.369 383.063C191.299 386.593 183.859 386.833 177.579 383.693L76.259 324.993C68.969 320.663 69.389 313.883 74.569 310.423Z" fill="#DAC5FB"/>
<path opacity="0.1799" d="M74.7394 310.413L179.209 251.033C185.379 247.453 192.929 247.213 199.309 250.413L300.509 309.133C305.739 312.943 306.749 320.563 300.969 323.933L197.359 382.953C191.299 386.483 183.869 386.713 177.589 383.583L76.4095 324.963C69.1495 320.643 69.5694 313.873 74.7394 310.413Z" fill="#D9C4FB"/>
<path opacity="0.1829" d="M74.8993 310.413L179.229 251.113C185.389 247.533 192.939 247.303 199.299 250.493L300.369 309.133C305.589 312.943 306.599 320.553 300.829 323.913L197.359 382.853C191.309 386.373 183.879 386.613 177.619 383.483L76.5693 324.943C69.3293 320.623 69.7393 313.863 74.8993 310.413Z" fill="#D9C3FB"/>
<path opacity="0.186" d="M75.0696 310.403L179.25 251.183C185.4 247.613 192.94 247.373 199.3 250.563L300.23 309.133C305.44 312.933 306.45 320.533 300.69 323.893L197.37 382.753C191.32 386.273 183.91 386.503 177.66 383.383L76.7396 324.923C69.5096 320.603 69.9196 313.853 75.0696 310.403Z" fill="#D8C2FB"/>
<path opacity="0.189" d="M75.2395 310.393L179.28 251.253C185.42 247.683 192.949 247.453 199.299 250.633L300.099 309.123C305.309 312.923 306.309 320.513 300.559 323.863L197.379 382.643C191.339 386.153 183.939 386.393 177.689 383.263L76.9095 324.873C69.6795 320.583 70.0995 313.843 75.2395 310.393Z" fill="#D7C1FB"/>
<path opacity="0.1921" d="M75.4089 310.392L179.299 251.342C185.429 247.782 192.949 247.542 199.289 250.732L299.949 309.142C305.149 312.932 306.159 320.512 300.409 323.862L197.379 382.562C191.349 386.072 183.959 386.302 177.719 383.182L77.0689 324.872C69.8589 320.562 70.2689 313.832 75.4089 310.392Z" fill="#D7C0FB"/>
<path opacity="0.1951" d="M75.5791 310.383L179.329 251.413C185.459 247.853 192.959 247.623 199.299 250.803L299.829 309.133C305.019 312.923 306.029 320.493 300.289 323.833L197.389 382.443C191.369 385.953 183.989 386.183 177.749 383.063L77.2391 324.833C70.0391 320.543 70.4491 313.823 75.5791 310.383Z" fill="#D6BFFB"/>
<path opacity="0.1982" d="M75.749 310.383L179.349 251.493C185.469 247.943 192.969 247.703 199.289 250.883L299.679 309.133C304.869 312.913 305.869 320.473 300.139 323.813L197.399 382.343C191.389 385.843 184.009 386.073 177.789 382.963L77.409 324.813C70.209 320.523 70.629 313.813 75.749 310.383Z" fill="#D5BEFB"/>
<path opacity="0.2012" d="M75.9193 310.373L179.379 251.563C185.489 248.013 192.979 247.783 199.289 250.953L299.549 309.133C304.729 312.913 305.729 320.463 300.009 323.793L197.399 382.243C191.389 385.743 184.029 385.973 177.819 382.863L77.5793 324.793C70.3893 320.503 70.7993 313.803 75.9193 310.373Z" fill="#D5BDFB"/>
<path opacity="0.2043" d="M76.0896 310.372L179.4 251.642C185.5 248.092 192.98 247.862 199.29 251.032L299.41 309.132C304.58 312.902 305.58 320.442 299.87 323.772L197.41 382.142C191.41 385.632 184.06 385.862 177.85 382.762L77.7396 324.762C70.5696 320.492 70.9796 313.792 76.0896 310.372Z" fill="#D4BCFB"/>
<path opacity="0.2073" d="M76.2595 310.362L179.42 251.712C185.51 248.172 192.98 247.942 199.28 251.102L299.27 309.122C304.43 312.892 305.429 320.422 299.719 323.742L197.41 382.032C191.42 385.522 184.08 385.752 177.88 382.652L77.9095 324.732C70.7395 320.472 71.1595 313.782 76.2595 310.362Z" fill="#D3BBFA"/>
<path opacity="0.2104" d="M76.4289 310.362L179.449 251.792C185.529 248.252 192.989 248.022 199.279 251.182L299.129 309.122C304.289 312.882 305.289 320.402 299.579 323.722L197.409 381.932C191.429 385.412 184.099 385.642 177.909 382.552L78.0689 324.712C70.9189 320.452 71.3289 313.772 76.4289 310.362Z" fill="#D3BAFA"/>
<path opacity="0.2134" d="M76.5991 310.353L179.469 251.863C185.549 248.333 192.989 248.103 199.279 251.253L298.999 309.123C304.149 312.883 305.149 320.393 299.449 323.703L197.429 381.833C191.459 385.313 184.129 385.543 177.949 382.453L78.2491 324.693C71.0991 320.433 71.5091 313.763 76.5991 310.353Z" fill="#D2B9FA"/>
<path opacity="0.2165" d="M76.769 310.353L179.499 251.943C185.569 248.413 193.009 248.193 199.279 251.333L298.869 309.113C304.009 312.863 305.009 320.363 299.319 323.673L197.439 381.723C191.469 385.193 184.159 385.423 177.989 382.343L78.419 324.663C71.269 320.413 71.679 313.753 76.769 310.353Z" fill="#D2B8FA"/>
<path opacity="0.2195" d="M76.9394 310.343L179.519 252.013C185.579 248.493 193.009 248.263 199.269 251.403L298.719 309.113C303.859 312.863 304.849 320.353 299.169 323.653L197.429 381.623C191.469 385.093 184.169 385.323 177.999 382.243L78.5695 324.633C71.4495 320.393 71.8594 313.743 76.9394 310.343Z" fill="#D1B7FA"/>
<path opacity="0.2226" d="M77.1095 310.333L179.55 252.093C185.6 248.573 193.02 248.353 199.28 251.483L298.6 309.113C303.73 312.853 304.72 320.333 299.05 323.633L197.46 381.523C191.51 384.983 184.22 385.213 178.06 382.143L78.7595 324.613C71.6295 320.373 72.0395 313.733 77.1095 310.333Z" fill="#D0B6FA"/>
<path opacity="0.2256" d="M77.2795 310.332L179.57 252.172C185.61 248.662 193.02 248.432 199.27 251.562L298.45 309.112C303.57 312.852 304.56 320.322 298.9 323.612L197.45 381.422C191.51 384.882 184.23 385.112 178.08 382.032L78.9195 324.582C71.7995 320.352 72.2095 313.722 77.2795 310.332Z" fill="#D0B5FA"/>
<path opacity="0.2287" d="M77.4488 310.323L179.599 252.243C185.639 248.733 193.029 248.513 199.269 251.643L298.319 309.113C303.439 312.843 304.429 320.303 298.769 323.593L197.469 381.323C191.539 384.773 184.259 385.003 178.119 381.933L79.0888 324.563C71.9788 320.333 72.3888 313.713 77.4488 310.323Z" fill="#CFB4FA"/>
<path opacity="0.2317" d="M77.6192 310.323L179.619 252.323C185.649 248.823 193.029 248.593 199.269 251.723L298.179 309.113C303.289 312.843 304.279 320.283 298.629 323.573L197.469 381.223C191.549 384.673 184.279 384.903 178.149 381.833L79.2492 324.543C72.1592 320.313 72.5692 313.703 77.6192 310.323Z" fill="#CEB3FA"/>
<path opacity="0.2348" d="M77.7894 310.313L179.649 252.393C185.669 248.893 193.049 248.673 199.269 251.793L298.049 309.113C303.149 312.833 304.139 320.273 298.499 323.553L197.479 381.123C191.559 384.563 184.309 384.793 178.189 381.733L79.4293 324.513C72.3393 320.293 72.7394 313.693 77.7894 310.313Z" fill="#CEB2FA"/>
<path opacity="0.2378" d="M77.9594 310.312L179.669 252.472C185.679 248.982 193.049 248.752 199.259 251.872L297.899 309.112C302.999 312.832 303.979 320.252 298.349 323.532L197.479 381.022C191.569 384.462 184.329 384.692 178.209 381.632L79.5794 324.492C72.5094 320.282 72.9194 313.682 77.9594 310.312Z" fill="#CDB1FA"/>
<path opacity="0.2409" d="M78.1295 310.302L179.7 252.542C185.7 249.052 193.06 248.832 199.27 251.942L297.78 309.102C302.87 312.812 303.849 320.232 298.229 323.502L197.499 380.912C191.599 384.342 184.37 384.572 178.26 381.522L79.7695 324.462C72.6895 320.262 73.0995 313.672 78.1295 310.302Z" fill="#CCB0FA"/>
<path opacity="0.2439" d="M78.2895 310.303L179.71 252.623C185.7 249.143 193.05 248.913 199.25 252.023L297.62 309.103C302.7 312.813 303.68 320.213 298.07 323.483L197.49 380.813C191.6 384.243 184.37 384.473 178.27 381.423L79.9095 324.443C72.8695 320.243 73.2695 313.663 78.2895 310.303Z" fill="#CCAFFA"/>
<path opacity="0.247" d="M78.4593 310.293L179.739 252.693C185.729 249.213 193.059 248.993 199.249 252.093L297.489 309.093C302.559 312.793 303.549 320.193 297.939 323.453L197.499 380.713C191.619 384.143 184.399 384.363 178.309 381.323L80.0894 324.423C73.0394 320.223 73.4493 313.653 78.4593 310.293Z" fill="#CBAEFA"/>
<path opacity="0.25" d="M78.6297 310.293L179.76 252.783C185.74 249.313 193.07 249.083 199.25 252.183L297.35 309.113C302.42 312.813 303.4 320.193 297.8 323.453L197.5 380.623C191.62 384.043 184.42 384.273 178.34 381.233L80.2497 324.403C73.2197 320.203 73.6197 313.643 78.6297 310.293Z" fill="#CAADF9"/>
<path opacity="0.253" d="M78.7989 310.283L179.789 252.853C185.759 249.383 193.079 249.163 199.249 252.253L297.219 309.103C302.279 312.793 303.259 320.173 297.669 323.423L197.519 380.503C191.649 383.923 184.459 384.143 178.379 381.113L80.4289 324.363C73.3989 320.183 73.7989 313.633 78.7989 310.283Z" fill="#CAACF9"/>
<path opacity="0.2561" d="M78.969 310.272L179.809 252.922C185.769 249.462 193.079 249.232 199.239 252.322L297.079 309.092C302.129 312.782 303.109 320.142 297.519 323.392L197.509 380.392C191.649 383.802 184.469 384.032 178.399 381.002L80.579 324.332C73.569 320.162 73.979 313.622 78.969 310.272Z" fill="#C9ABF9"/>
<path opacity="0.2591" d="M79.1393 310.272L179.829 253.002C185.779 249.542 193.079 249.322 199.229 252.402L296.929 309.092C301.979 312.772 302.949 320.132 297.369 323.382L197.509 380.302C191.659 383.712 184.479 383.932 178.429 380.912L80.7493 324.322C73.7493 320.142 74.1493 313.612 79.1393 310.272Z" fill="#C9AAF9"/>
<path opacity="0.2622" d="M79.3095 310.263L179.86 253.073C185.81 249.623 193.09 249.393 199.24 252.473L296.81 309.083C301.85 312.763 302.83 320.103 297.25 323.353L197.53 380.193C191.69 383.593 184.519 383.823 178.469 380.793L80.9195 324.283C73.9295 320.123 74.3295 313.603 79.3095 310.263Z" fill="#C8A9F9"/>
<path opacity="0.2652" d="M79.4794 310.263L179.879 253.153C185.819 249.703 193.089 249.483 199.229 252.563L296.659 309.093C301.689 312.763 302.669 320.103 297.099 323.343L197.529 380.103C191.689 383.503 184.539 383.723 178.499 380.703L81.0894 324.263C74.0994 320.103 74.5094 313.593 79.4794 310.263Z" fill="#C7A8F9"/>
<path opacity="0.2683" d="M79.6497 310.253L179.91 253.223C185.84 249.773 193.11 249.553 199.23 252.633L296.53 309.093C301.56 312.763 302.53 320.083 296.97 323.323L197.54 380.003C191.71 383.393 184.57 383.623 178.54 380.603L81.2597 324.243C74.2797 320.093 74.6797 313.583 79.6497 310.253Z" fill="#C7A7F9"/>
<path opacity="0.2713" d="M79.8192 310.252L179.929 253.302C185.849 249.862 193.109 249.642 199.229 252.712L296.389 309.092C301.409 312.752 302.379 320.072 296.829 323.302L197.539 379.902C191.719 383.292 184.579 383.512 178.559 380.502L81.4092 324.222C74.4592 320.072 74.8592 313.572 79.8192 310.252Z" fill="#C6A6F9"/>
<path opacity="0.2744" d="M79.9892 310.243L179.959 253.373C185.869 249.933 193.119 249.713 199.229 252.783L296.259 309.083C301.269 312.743 302.239 320.043 296.699 323.273L197.559 379.793C191.749 383.173 184.619 383.403 178.609 380.393L81.5992 324.193C74.6392 320.053 75.0392 313.563 79.9892 310.243Z" fill="#C5A5F9"/>
<path opacity="0.2774" d="M80.1594 310.243L179.979 253.453C185.879 250.023 193.119 249.803 199.219 252.863L296.109 309.083C301.109 312.733 302.079 320.033 296.549 323.253L197.549 379.693C191.749 383.073 184.629 383.293 178.619 380.293L81.7394 324.173C74.8094 320.033 75.2094 313.553 80.1594 310.243Z" fill="#C5A4F9"/>
<path opacity="0.2805" d="M80.3294 310.233L180.009 253.533C185.909 250.103 193.129 249.883 199.229 252.943L295.989 309.083C300.989 312.733 301.959 320.013 296.429 323.233L197.579 379.593C191.779 382.963 184.679 383.193 178.679 380.193L81.9394 324.143C74.9894 320.013 75.3894 313.543 80.3294 310.233Z" fill="#C4A3F9"/>
<path opacity="0.2835" d="M80.4989 310.233L180.029 253.613C185.919 250.193 193.129 249.973 199.219 253.023L295.839 309.093C300.829 312.733 301.799 320.013 296.279 323.223L197.569 379.503C191.779 382.873 184.689 383.093 178.699 380.103L82.0889 324.133C75.1689 319.993 75.5589 313.533 80.4989 310.233Z" fill="#C3A2F9"/>
<path opacity="0.2866" d="M80.6698 310.223L180.06 253.683C185.94 250.263 193.15 250.043 199.22 253.093L295.71 309.083C300.69 312.723 301.66 319.983 296.15 323.193L197.58 379.393C191.8 382.753 184.71 382.983 178.73 379.993L82.2598 324.103C75.3398 319.973 75.7398 313.523 80.6698 310.223Z" fill="#C3A1F9"/>
<path opacity="0.2896" d="M80.839 310.213L180.079 253.753C185.949 250.343 193.149 250.123 199.219 253.163L295.569 309.073C300.549 312.703 301.509 319.963 296.009 323.163L197.589 379.283C191.819 382.643 184.739 382.863 178.769 379.883L82.429 324.073C75.519 319.953 75.919 313.513 80.839 310.213Z" fill="#C2A0F9"/>
<path opacity="0.2927" d="M81.0092 310.213L180.109 253.833C185.969 250.423 193.159 250.203 199.219 253.243L295.439 309.073C300.409 312.703 301.369 319.943 295.879 323.143L197.599 379.183C191.839 382.533 184.769 382.763 178.809 379.783L82.6092 324.053C75.6992 319.933 76.0892 313.503 81.0092 310.213Z" fill="#C29FF9"/>
<path opacity="0.2957" d="M81.1793 310.203L180.129 253.903C185.989 250.503 193.159 250.283 199.209 253.313L295.289 309.063C300.249 312.683 301.209 319.923 295.729 323.113L197.599 379.073C191.839 382.423 184.789 382.643 178.829 379.673L82.7593 324.013C75.8693 319.913 76.2693 313.493 81.1793 310.203Z" fill="#C19EF8"/>
<path opacity="0.2988" d="M81.3494 310.203L180.159 253.983C186.009 250.583 193.169 250.363 199.219 253.393L295.169 309.073C300.129 312.693 301.089 319.913 295.609 323.103L197.619 378.983C191.869 382.333 184.829 382.553 178.879 379.573L82.9494 323.993C76.0494 319.893 76.4494 313.483 81.3494 310.203Z" fill="#C09DF8"/>
<path opacity="0.3018" d="M81.5093 310.193L180.169 254.053C186.009 250.663 193.159 250.443 199.199 253.473L295.019 309.073C299.969 312.683 300.929 319.893 295.459 323.083L197.619 378.883C191.879 382.223 184.839 382.443 178.899 379.473L83.0993 323.973C76.2293 319.883 76.6193 313.473 81.5093 310.193Z" fill="#C09CF8"/>
<path opacity="0.3049" d="M81.6792 310.193L180.199 254.133C186.029 250.743 193.179 250.523 199.199 253.553L294.879 309.073C299.819 312.683 300.779 319.883 295.319 323.063L197.619 378.773C191.889 382.113 184.859 382.333 178.929 379.363L83.2692 323.943C76.3992 319.863 76.7992 313.463 81.6792 310.193Z" fill="#BF9BF8"/>
<path opacity="0.3079" d="M81.8496 310.183L180.22 254.213C186.04 250.833 193.18 250.613 199.2 253.633L294.75 309.073C299.69 312.673 300.64 319.863 295.18 323.043L197.62 378.673C191.9 382.003 184.88 382.223 178.96 379.263L83.4296 323.923C76.5796 319.843 76.9796 313.453 81.8496 310.183Z" fill="#BE9AF8"/>
<path opacity="0.311" d="M82.0191 310.183L180.239 254.293C186.049 250.913 193.179 250.693 199.189 253.713L294.599 309.073C299.529 312.673 300.479 319.853 295.029 323.023L197.619 378.573C191.899 381.903 184.899 382.123 178.979 379.163L83.5791 323.893C76.7591 319.823 77.1491 313.443 82.0191 310.183Z" fill="#BE99F8"/>
<path opacity="0.314" d="M82.1892 310.173L180.269 254.363C186.079 250.993 193.189 250.773 199.189 253.783L294.469 309.063C299.389 312.653 300.339 319.823 294.899 322.993L197.629 378.463C191.919 381.783 184.929 382.003 179.019 379.053L83.7592 323.863C76.9392 319.803 77.3292 313.423 82.1892 310.173Z" fill="#BD98F8"/>
<path opacity="0.3171" d="M82.3591 310.173L180.289 254.443C186.089 251.073 193.189 250.853 199.189 253.863L294.329 309.073C299.239 312.653 300.199 319.823 294.759 322.983L197.639 378.373C191.939 381.693 184.949 381.913 179.059 378.963L83.9292 323.843C77.1092 319.783 77.4991 313.413 82.3591 310.173Z" fill="#BC97F8"/>
<path opacity="0.3201" d="M82.5294 310.163L180.319 254.513C186.109 251.153 193.209 250.933 199.189 253.933L294.199 309.063C299.109 312.643 300.059 319.793 294.629 322.953L197.649 378.263C191.959 381.573 184.979 381.793 179.089 378.853L84.0994 323.823C77.2894 319.763 77.6794 313.403 82.5294 310.163Z" fill="#BC96F8"/>
<path opacity="0.3232" d="M82.6989 310.153L180.339 254.583C186.119 251.223 193.209 251.003 199.179 254.003L294.049 309.053C298.949 312.623 299.899 319.773 294.479 322.923L197.639 378.153C191.959 381.463 184.989 381.683 179.109 378.743L84.2489 323.793C77.4689 319.743 77.8589 313.393 82.6989 310.153Z" fill="#BB95F8"/>
<path opacity="0.3262" d="M82.8695 310.153L180.369 254.663C186.139 251.313 193.219 251.093 199.189 254.083L293.929 309.053C298.819 312.623 299.769 319.753 294.359 322.903L197.669 378.053C191.999 381.353 185.039 381.573 179.169 378.643L84.4495 323.763C77.6395 319.723 78.0295 313.383 82.8695 310.153Z" fill="#BA94F8"/>
<path opacity="0.3293" d="M83.039 310.143L180.389 254.733C186.159 251.383 193.219 251.163 199.179 254.153L293.779 309.043C298.669 312.603 299.609 319.733 294.209 322.873L197.659 377.943C191.989 381.243 185.049 381.463 179.179 378.533L84.589 323.733C77.819 319.703 78.209 313.373 83.039 310.143Z" fill="#BA93F8"/>
<path opacity="0.3323" d="M83.2091 310.143L180.419 254.813C186.179 251.463 193.229 251.253 199.179 254.233L293.649 309.053C298.529 312.613 299.469 319.723 294.079 322.863L197.679 377.853C192.019 381.143 185.079 381.363 179.229 378.443L84.7791 323.723C77.9991 319.693 78.3891 313.363 83.2091 310.143Z" fill="#B992F8"/>
<path opacity="0.3354" d="M83.3792 310.132L180.439 254.882C186.189 251.542 193.229 251.322 199.179 254.302L293.509 309.042C298.379 312.592 299.329 319.702 293.939 322.832L197.679 377.742C192.029 381.032 185.099 381.252 179.249 378.322L84.9292 323.682C78.1692 319.672 78.5592 313.352 83.3792 310.132Z" fill="#B991F8"/>
<path opacity="0.3384" d="M83.5493 310.133L180.469 254.973C186.209 251.633 193.249 251.423 199.179 254.403L293.379 309.063C298.249 312.613 299.189 319.703 293.809 322.833L197.699 377.663C192.059 380.943 185.139 381.163 179.299 378.243L85.1193 323.683C78.3493 319.653 78.7393 313.343 83.5493 310.133Z" fill="#B890F8"/>
<path opacity="0.3415" d="M83.7196 310.123L180.49 255.043C186.22 251.713 193.25 251.493 199.17 254.473L293.24 309.053C298.1 312.593 299.04 319.683 293.67 322.803L197.7 377.553C192.07 380.833 185.16 381.053 179.33 378.133L85.2796 323.643C78.5296 319.633 78.9196 313.333 83.7196 310.123Z" fill="#B78FF7"/>
<path opacity="0.3445" d="M83.8896 310.123L180.52 255.123C186.24 251.793 193.26 251.583 199.18 254.553L293.11 309.053C297.96 312.593 298.9 319.663 293.54 322.783L197.71 377.453C192.08 380.733 185.19 380.943 179.36 378.033L85.4496 323.623C78.6996 319.613 79.0896 313.323 83.8896 310.123Z" fill="#B78EF7"/>
<path opacity="0.3476" d="M84.0588 310.112L180.539 255.192C186.259 251.872 193.259 251.652 199.169 254.622L292.969 309.042C297.809 312.572 298.749 319.642 293.399 322.752L197.719 377.342C192.099 380.612 185.209 380.832 179.399 377.922L85.6188 323.592C78.8788 319.592 79.2688 313.312 84.0588 310.112Z" fill="#B68DF7"/>
<path opacity="0.3506" d="M84.2292 310.112L180.569 255.272C186.279 251.952 193.269 251.742 199.169 254.702L292.829 309.052C297.669 312.582 298.599 319.632 293.259 322.742L197.719 377.252C192.109 380.522 185.229 380.732 179.429 377.832L85.7792 323.582C79.0592 319.572 79.4392 313.302 84.2292 310.112Z" fill="#B58CF7"/>
<path opacity="0.3537" d="M84.3994 310.103L180.589 255.343C186.289 252.033 193.269 251.813 199.169 254.773L292.699 309.043C297.529 312.563 298.469 319.613 293.129 322.723L197.739 377.153C192.139 380.413 185.269 380.633 179.469 377.733L85.9594 323.563C79.2394 319.553 79.6194 313.293 84.3994 310.103Z" fill="#B58BF7"/>
<path opacity="0.3567" d="M84.5695 310.103L180.61 255.423C186.3 252.113 193.28 251.903 199.16 254.853L292.55 309.043C297.37 312.563 298.309 319.593 292.969 322.703L197.72 377.043C192.13 380.303 185.27 380.513 179.48 377.623L86.0995 323.523C79.4095 319.533 79.7995 313.283 84.5695 310.103Z" fill="#B48AF7"/>
<path opacity="0.3598" d="M84.7294 310.093L180.629 255.493C186.309 252.193 193.279 251.973 199.149 254.923L292.409 309.033C297.229 312.543 298.159 319.573 292.829 322.673L197.719 376.933C192.129 380.183 185.289 380.403 179.499 377.513L86.2594 323.493C79.5894 319.513 79.9694 313.273 84.7294 310.093Z" fill="#B389F7"/>
<path opacity="0.3628" d="M84.8997 310.083L180.65 255.563C186.32 252.263 193.28 252.053 199.15 254.993L292.27 309.023C297.08 312.533 298.01 319.543 292.69 322.643L197.73 376.823C192.15 380.073 185.31 380.283 179.54 377.403L86.4297 323.463C79.7697 319.493 80.1497 313.263 84.8997 310.083Z" fill="#B388F7"/>
<path opacity="0.3659" d="M85.0695 310.082L180.679 255.652C186.349 252.362 193.289 252.142 199.149 255.082L292.139 309.042C296.939 312.542 297.869 319.552 292.559 322.642L197.739 376.742C192.169 379.982 185.339 380.202 179.579 377.322L86.6095 323.462C79.9395 319.482 80.3295 313.252 85.0695 310.082Z" fill="#B287F7"/>
<path opacity="0.3689" d="M85.2389 310.072L180.699 255.722C186.359 252.432 193.289 252.222 199.139 255.152L291.999 309.032C296.799 312.532 297.719 319.522 292.419 322.612L197.749 376.632C192.189 379.872 185.369 380.082 179.609 377.212L86.7689 323.432C80.1189 319.462 80.4989 313.242 85.2389 310.072Z" fill="#B286F7"/>
<path opacity="0.372" d="M85.409 310.073L180.729 255.803C186.379 252.523 193.299 252.303 199.149 255.233L291.869 309.033C296.659 312.523 297.589 319.513 292.289 322.593L197.759 376.533C192.209 379.763 185.399 379.983 179.649 377.103L86.949 323.393C80.299 319.443 80.679 313.233 85.409 310.073Z" fill="#B185F7"/>
<path opacity="0.375" d="M85.579 310.063L180.749 255.873C186.389 252.593 193.309 252.383 199.139 255.303L291.719 309.023C296.499 312.513 297.429 319.483 292.139 322.563L197.759 376.423C192.209 379.653 185.419 379.863 179.679 376.993L87.109 323.363C80.469 319.423 80.859 313.223 85.579 310.063Z" fill="#B084F7"/>
<path opacity="0.378" d="M85.7493 310.062L180.779 255.952C186.409 252.682 193.319 252.462 199.139 255.392L291.589 309.032C296.369 312.512 297.289 319.472 292.009 322.552L197.769 376.332C192.229 379.552 185.439 379.772 179.709 376.902L87.2793 323.352C80.6493 319.402 81.0293 313.212 85.7493 310.062Z" fill="#B083F7"/>
<path opacity="0.3811" d="M85.9196 310.052L180.8 256.022C186.43 252.752 193.32 252.542 199.14 255.462L291.45 309.032C296.22 312.512 297.14 319.462 291.87 322.532L197.77 376.232C192.24 379.452 185.46 379.662 179.74 376.802L87.4396 323.332C80.8296 319.382 81.2096 313.202 85.9196 310.052Z" fill="#AF82F7"/>
<path opacity="0.3841" d="M86.0895 310.053L180.829 256.103C186.449 252.843 193.329 252.623 199.139 255.543L291.319 309.033C296.079 312.503 296.999 319.443 291.739 322.513L197.789 376.133C192.269 379.343 185.499 379.563 179.779 376.703L87.6195 323.313C80.9995 319.363 81.3795 313.193 86.0895 310.053Z" fill="#AE81F7"/>
<path opacity="0.3872" d="M86.2588 310.043L180.849 256.173C186.459 252.913 193.329 252.703 199.129 255.613L291.179 309.023C295.929 312.493 296.849 319.423 291.599 322.483L197.789 376.023C192.279 379.233 185.519 379.443 179.809 376.593L87.7788 323.273C81.1788 319.343 81.5588 313.183 86.2588 310.043Z" fill="#AE80F6"/>
<path opacity="0.3902" d="M86.429 310.043L180.879 256.253C186.479 253.003 193.349 252.783 199.139 255.693L291.049 309.023C295.799 312.483 296.719 319.403 291.469 322.463L197.809 375.923C192.299 379.123 185.549 379.343 179.859 376.493L87.959 323.253C81.359 319.323 81.739 313.173 86.429 310.043Z" fill="#AD7FF6"/>
<path opacity="0.3933" d="M86.599 310.033L180.899 256.323C186.489 253.073 193.349 252.863 199.129 255.763L290.909 309.013C295.649 312.473 296.569 319.383 291.329 322.433L197.809 375.813C192.309 379.013 185.569 379.223 179.879 376.383L88.119 323.223C81.529 319.303 81.909 313.163 86.599 310.033Z" fill="#AC7EF6"/>
<path opacity="0.3963" d="M86.7694 310.022L180.929 256.402C186.509 253.162 193.359 252.942 199.129 255.842L290.769 309.022C295.499 312.472 296.419 319.372 291.189 322.422L197.809 375.722C192.319 378.922 185.589 379.132 179.909 376.292L88.2794 323.212C81.7094 319.292 82.0894 313.152 86.7694 310.022Z" fill="#AC7DF6"/>
<path opacity="0.3994" d="M86.9395 310.022L180.95 256.482C186.53 253.242 193.36 253.032 199.12 255.922L290.63 309.022C295.36 312.472 296.269 319.362 291.049 322.402L197.82 375.622C192.34 378.812 185.62 379.022 179.95 376.192L88.4595 323.192C81.8895 319.272 82.2695 313.142 86.9395 310.022Z" fill="#AB7CF6"/>
<path opacity="0.4024" d="M87.1089 310.013L180.979 256.553C186.549 253.313 193.369 253.103 199.129 255.993L290.499 309.013C295.219 312.453 296.129 319.333 290.919 322.373L197.829 375.513C192.359 378.703 185.649 378.913 179.979 376.083L88.6189 323.153C82.0689 319.253 82.4389 313.133 87.1089 310.013Z" fill="#AA7BF6"/>
<path opacity="0.4055" d="M87.2798 310.013L181 256.633C186.56 253.403 193.37 253.193 199.12 256.073L290.36 309.013C295.07 312.453 295.98 319.323 290.77 322.353L197.83 375.413C192.36 378.593 185.66 378.803 180.01 375.983L88.7898 323.133C82.2398 319.233 82.6198 313.123 87.2798 310.013Z" fill="#AA7AF6"/>
<path opacity="0.4085" d="M87.4492 310.003L181.029 256.703C186.579 253.473 193.389 253.273 199.119 256.143L290.219 309.003C294.929 312.433 295.839 319.293 290.629 322.323L197.829 375.303C192.369 378.483 185.679 378.693 180.039 375.863L88.9492 323.093C82.4192 319.213 82.7992 313.113 87.4492 310.003Z" fill="#A979F6"/>
<path opacity="0.4116" d="M87.6194 310.003L181.049 256.783C186.589 253.563 193.389 253.353 199.119 256.223L290.089 309.003C294.789 312.433 295.699 319.283 290.499 322.303L197.839 375.193C192.389 378.363 185.709 378.573 180.069 375.753L89.1194 323.063C82.5994 319.193 82.9694 313.103 87.6194 310.003Z" fill="#A978F6"/>
<path opacity="0.4146" d="M87.7894 309.993L181.069 256.853C186.609 253.633 193.389 253.433 199.109 256.303L289.939 309.013C294.629 312.433 295.539 319.273 290.349 322.293L197.839 375.103C192.399 378.273 185.729 378.483 180.099 375.663L89.2794 323.053C82.7694 319.173 83.1494 313.093 87.7894 309.993Z" fill="#A877F6"/>
<path opacity="0.4177" d="M87.9493 309.993L181.089 256.933C186.619 253.723 193.389 253.513 199.099 256.383L289.799 309.013C294.479 312.433 295.389 319.263 290.209 322.273L197.839 375.003C192.409 378.163 185.749 378.373 180.119 375.563L89.4393 323.023C82.9493 319.153 83.3193 313.083 87.9493 309.993Z" fill="#A776F6"/>
<path opacity="0.4207" d="M88.1195 309.983L181.11 257.003C186.63 253.793 193.39 253.593 199.1 256.453L289.66 309.003C294.34 312.413 295.24 319.233 290.07 322.243L197.85 374.893C192.43 378.053 185.77 378.263 180.16 375.453L89.6095 322.993C83.1295 319.133 83.4995 313.073 88.1195 309.983Z" fill="#A775F6"/>
<path opacity="0.4238" d="M88.2893 309.983L181.139 257.093C186.649 253.893 193.399 253.683 199.099 256.543L289.529 309.013C294.199 312.423 295.109 319.233 289.939 322.233L197.859 374.803C192.439 377.953 185.799 378.163 180.199 375.363L89.7893 322.983C83.2993 319.113 83.6793 313.063 88.2893 309.983Z" fill="#A674F6"/>
<path opacity="0.4268" d="M88.4588 309.973L181.159 257.163C186.659 253.963 193.409 253.763 199.089 256.613L289.379 309.003C294.039 312.403 294.949 319.203 289.789 322.203L197.859 374.693C192.449 377.843 185.819 378.053 180.219 375.253L89.9388 322.953C83.4788 319.093 83.8488 313.053 88.4588 309.973Z" fill="#A573F6"/>
<path opacity="0.4299" d="M88.629 309.963L181.189 257.233C186.679 254.043 193.419 253.833 199.099 256.683L289.259 309.003C293.919 312.403 294.819 319.193 289.669 322.183L197.879 374.593C192.479 377.733 185.859 377.943 180.269 375.153L90.119 322.933C83.659 319.083 84.029 313.043 88.629 309.963Z" fill="#A572F6"/>
<path opacity="0.4329" d="M88.7989 309.963L181.209 257.313C186.699 254.123 193.419 253.923 199.089 256.763L289.119 309.003C293.769 312.393 294.669 319.173 289.529 322.163L197.879 374.493C192.489 377.633 185.879 377.843 180.299 375.053L90.2889 322.903C83.8289 319.063 84.2089 313.033 88.7989 309.963Z" fill="#A471F5"/>
<path opacity="0.436" d="M88.9693 309.953L181.239 257.383C186.719 254.203 193.429 253.993 199.089 256.833L288.979 308.993C293.619 312.383 294.519 319.153 289.389 322.133L197.889 374.383C192.509 377.513 185.899 377.723 180.329 374.943L90.4493 322.873C84.0093 319.043 84.3793 313.023 88.9693 309.953Z" fill="#A370F5"/>
<path opacity="0.439" d="M89.1394 309.953L181.259 257.463C186.729 254.283 193.429 254.083 199.089 256.913L288.849 308.993C293.489 312.373 294.379 319.133 289.259 322.113L197.899 374.283C192.519 377.413 185.929 377.623 180.369 374.843L90.6294 322.853C84.1894 319.023 84.5594 313.013 89.1394 309.953Z" fill="#A36FF5"/>
<path opacity="0.4421" d="M89.3098 309.942L181.29 257.532C186.75 254.362 193.44 254.152 199.09 256.982L288.71 308.982C293.34 312.362 294.24 319.112 289.12 322.082L197.91 374.172C192.54 377.292 185.96 377.502 180.4 374.732L90.7898 322.822C84.3698 319.002 84.7398 313.002 89.3098 309.942Z" fill="#A26EF5"/>
<path opacity="0.4451" d="M89.4797 309.942L181.31 257.612C186.76 254.442 193.45 254.242 199.08 257.062L288.57 308.992C293.19 312.362 294.09 319.102 288.98 322.072L197.91 374.082C192.55 377.202 185.98 377.412 180.43 374.632L90.9597 322.802C84.5397 318.982 84.9097 312.992 89.4797 309.942Z" fill="#A26DF5"/>
<path opacity="0.4482" d="M89.649 309.933L181.339 257.683C186.789 254.523 193.459 254.313 199.089 257.133L288.439 308.983C293.059 312.353 293.949 319.073 288.849 322.043L197.919 373.973C192.569 377.093 186.009 377.293 180.469 374.523L91.129 322.763C84.719 318.963 85.089 312.983 89.649 309.933Z" fill="#A16CF5"/>
<path opacity="0.4512" d="M89.8193 309.933L181.359 257.763C186.799 254.603 193.459 254.403 199.079 257.223L288.299 308.993C292.909 312.353 293.799 319.073 288.709 322.043L197.929 373.893C192.589 377.003 186.029 377.213 180.499 374.443L91.2992 322.763C84.8992 318.943 85.2593 312.973 89.8193 309.933Z" fill="#A06BF5"/>
<path opacity="0.4543" d="M89.9892 309.923L181.389 257.843C186.819 254.693 193.469 254.483 199.079 257.303L288.159 308.993C292.759 312.353 293.649 319.053 288.569 322.023L197.929 373.793C192.589 376.903 186.049 377.103 180.529 374.343L91.4592 322.743C85.0692 318.923 85.4392 312.963 89.9892 309.923Z" fill="#A06AF5"/>
<path opacity="0.4573" d="M90.1594 309.923L181.409 257.923C186.829 254.773 193.469 254.573 199.079 257.383L288.029 308.993C292.619 312.343 293.509 319.043 288.429 322.003L197.939 373.693C192.609 376.793 186.079 377.003 180.569 374.243L91.6394 322.723C85.2494 318.903 85.6194 312.953 90.1594 309.923Z" fill="#9F69F5"/>
<path opacity="0.4604" d="M90.329 309.913L181.429 257.993C186.839 254.853 193.479 254.643 199.069 257.453L287.879 308.983C292.469 312.333 293.359 319.013 288.279 321.973L197.929 373.583C192.609 376.683 186.089 376.883 180.579 374.133L91.779 322.693C85.429 318.893 85.789 312.943 90.329 309.913Z" fill="#9E68F5"/>
<path opacity="0.4634" d="M90.4997 309.903L181.46 258.063C186.86 254.923 193.49 254.723 199.07 257.523L287.75 308.983C292.33 312.323 293.22 319.003 288.15 321.953L197.95 373.473C192.64 376.563 186.13 376.773 180.63 374.023L91.9697 322.653C85.5997 318.873 85.9697 312.933 90.4997 309.903Z" fill="#9E67F5"/>
<path opacity="0.4665" d="M90.6691 309.903L181.479 258.143C186.879 255.003 193.489 254.803 199.069 257.603L287.609 308.983C292.179 312.323 293.069 318.983 288.009 321.933L197.949 373.373C192.649 376.463 186.139 376.663 180.649 373.923L92.1191 322.633C85.7791 318.853 86.1491 312.923 90.6691 309.903Z" fill="#9D66F5"/>
<path opacity="0.4695" d="M90.8394 309.893L181.509 258.213C186.899 255.083 193.499 254.883 199.069 257.673L287.479 308.973C292.049 312.303 292.929 318.963 287.879 321.903L197.959 373.263C192.659 376.343 186.169 376.553 180.689 373.813L92.2894 322.603C85.9594 318.833 86.3194 312.913 90.8394 309.893Z" fill="#9C65F5"/>
<path opacity="0.4726" d="M91.0092 309.893L181.529 258.293C186.909 255.163 193.499 254.963 199.059 257.753L287.339 308.973C291.899 312.303 292.779 318.943 287.739 321.883L197.969 373.163C192.679 376.243 186.199 376.443 180.729 373.713L92.4692 322.583C86.1292 318.813 86.4992 312.903 91.0092 309.893Z" fill="#9C64F5"/>
<path opacity="0.4756" d="M91.1692 309.882L181.549 258.362C186.919 255.242 193.499 255.042 199.059 257.822L287.199 308.962C291.749 312.282 292.629 318.922 287.599 321.852L197.969 373.052C192.689 376.122 186.219 376.332 180.749 373.602L92.6192 322.552C86.3092 318.792 86.6692 312.892 91.1692 309.882Z" fill="#9B63F5"/>
<path opacity="0.4787" d="M91.3393 309.882L181.569 258.442C186.929 255.322 193.509 255.122 199.049 257.902L287.059 308.972C291.609 312.292 292.489 318.912 287.459 321.842L197.979 372.962C192.709 376.032 186.249 376.232 180.789 373.512L92.7993 322.532C86.4893 318.772 86.8493 312.882 91.3393 309.882Z" fill="#9A62F4"/>
<path opacity="0.4817" d="M91.5097 309.873L181.6 258.523C186.95 255.413 193.52 255.213 199.05 257.983L286.92 308.973C291.46 312.283 292.34 318.903 287.32 321.823L197.98 372.863C192.72 375.923 186.26 376.133 180.82 373.403L92.9597 322.503C86.6697 318.753 87.0297 312.873 91.5097 309.873Z" fill="#9A61F4"/>
<path opacity="0.4848" d="M91.6796 309.873L181.62 258.603C186.97 255.493 193.52 255.293 199.05 258.063L286.79 308.973C291.32 312.283 292.2 318.883 287.19 321.803L197.99 372.763C192.73 375.823 186.29 376.023 180.85 373.303L93.1296 322.483C86.8396 318.733 87.1996 312.863 91.6796 309.873Z" fill="#9960F4"/>
<path opacity="0.4878" d="M91.8489 309.862L181.649 258.672C186.989 255.572 193.529 255.372 199.049 258.142L286.649 308.972C291.179 312.272 292.049 318.872 287.049 321.782L197.999 372.652C192.749 375.702 186.319 375.912 180.889 373.192L93.2989 322.452C87.0189 318.712 87.3789 312.852 91.8489 309.862Z" fill="#995FF4"/>
<path opacity="0.4909" d="M92.0191 309.862L181.669 258.752C186.999 255.652 193.529 255.452 199.039 258.222L286.509 308.972C291.029 312.272 291.899 318.852 286.909 321.762L197.999 372.552C192.759 375.602 186.339 375.802 180.919 373.092L93.4691 322.432C87.1991 318.692 87.5591 312.842 92.0191 309.862Z" fill="#985EF4"/>
<path opacity="0.4939" d="M92.189 309.853L181.699 258.823C187.019 255.733 193.539 255.533 199.049 258.293L286.379 308.963C290.889 312.253 291.759 318.833 286.779 321.733L198.019 372.453C192.789 375.503 186.379 375.703 180.959 372.993L93.6391 322.403C87.3691 318.683 87.729 312.833 92.189 309.853Z" fill="#975DF4"/>
<path opacity="0.497" d="M92.3593 309.843L181.719 258.893C187.029 255.803 193.549 255.603 199.039 258.363L286.239 308.963C290.739 312.253 291.619 318.813 286.639 321.713L198.019 372.353C192.799 375.393 186.389 375.593 180.989 372.893L93.8093 322.383C87.5493 318.663 87.9093 312.823 92.3593 309.843Z" fill="#975CF4"/>
<path opacity="0.5" d="M92.5297 309.843L181.75 258.973C187.06 255.893 193.56 255.693 199.04 258.443L286.1 308.963C290.6 312.243 291.47 318.803 286.5 321.693L198.03 372.253C192.81 375.293 186.42 375.493 181.02 372.793L93.9697 322.362C87.7297 318.642 88.0897 312.813 92.5297 309.843Z" fill="#965BF4"/>
<path d="M287.58 298.132C287.58 298.132 281.02 297.402 282.35 304.822L198.63 256.242C193.15 253.492 186.64 253.692 181.34 256.772L106.4 299.412C99.0499 296.042 92.2899 294.952 89.2699 299.892C83.7799 308.862 87.4699 313.732 90.5699 316.752C91.2899 317.552 92.2399 318.302 93.4099 318.952C93.5099 319.012 93.5699 319.042 93.5699 319.042L180.62 369.472C186.02 372.172 192.41 371.972 197.63 368.932L286.1 318.372C286.09 318.382 298.99 310.542 287.58 298.132Z" fill="url(#paint1_linear)"/>
<mask id="mask0" mask-type="alpha" maskUnits="userSpaceOnUse" x="46" y="169" width="354" height="203">
<path d="M394.569 236.183C387.819 229.353 387.599 235.473 388.929 242.893L265.229 171.183C259.749 168.433 253.239 168.633 247.939 171.713L66.4194 276.293C59.0694 272.923 52.3094 271.833 49.2894 276.773C43.7994 285.743 47.4894 290.613 50.5894 293.633C51.3094 294.433 52.2594 295.183 53.4294 295.833C53.5294 295.893 53.5894 295.923 53.5894 295.923L180.619 369.483C186.019 372.183 192.409 371.983 197.629 368.943L392.679 256.453C392.669 256.453 407.499 249.273 394.569 236.183Z" fill="url(#paint2_linear)"/>
</mask>
<g mask="url(#mask0)">
<path opacity="0.4" d="M287.58 298.132C287.58 298.132 281.02 297.402 282.35 304.822L198.63 256.242C193.15 253.492 186.64 253.692 181.34 256.772L106.4 299.412C99.0499 296.042 92.2899 294.952 89.2699 299.892C83.7799 308.862 87.4699 313.732 90.5699 316.752C91.2899 317.552 92.2399 318.302 93.4099 318.952C93.5099 319.012 93.5699 319.042 93.5699 319.042L180.62 369.472C186.02 372.172 192.41 371.972 197.63 368.932L286.1 318.372C286.09 318.382 299.03 310.892 287.58 298.132Z" fill="url(#paint3_linear)"/>
</g>
<mask id="mask1" mask-type="alpha" maskUnits="userSpaceOnUse" x="46" y="169" width="354" height="203">
<path d="M394.569 236.183C387.819 229.353 387.599 235.473 388.929 242.893L265.229 171.183C259.749 168.433 253.239 168.633 247.939 171.713L66.4194 276.293C59.0694 272.923 52.3094 271.833 49.2894 276.773C43.7994 285.743 47.4894 290.613 50.5894 293.633C51.3094 294.433 52.2594 295.183 53.4294 295.833C53.5294 295.893 53.5894 295.923 53.5894 295.923L180.619 369.483C186.019 372.183 192.409 371.983 197.629 368.943L392.679 256.453C392.669 256.453 407.499 249.273 394.569 236.183Z" fill="url(#paint4_linear)"/>
</mask>
<g mask="url(#mask1)">
<path opacity="0.5" d="M287.58 298.132C287.58 298.132 281.02 297.402 282.35 304.822L198.63 256.242C193.15 253.492 186.64 253.692 181.34 256.772L106.4 299.412C99.0499 296.042 92.2899 294.952 89.2699 299.892C83.7799 308.862 87.4699 313.732 90.5699 316.752C91.2899 317.552 92.2399 318.302 93.4099 318.952C93.5099 319.012 93.5699 319.042 93.5699 319.042L180.62 369.472C186.02 372.172 192.41 371.972 197.63 368.932L286.1 318.372C286.09 318.382 298.79 310.672 287.58 298.132Z" fill="url(#paint5_linear)"/>
<path d="M92.0199 297.083L181.24 246.213C186.55 243.133 193.05 242.933 198.53 245.683L285.59 296.203C290.09 299.483 290.96 306.043 285.99 308.933L197.52 359.493C192.3 362.533 185.91 362.733 180.51 360.033L93.4599 309.603C87.2199 305.883 87.5799 300.053 92.0199 297.083Z" fill="url(#paint6_linear)"/>
</g>
<path d="M99.1891 297.613L182.639 250.043C187.069 247.473 192.499 247.303 197.079 249.603L278.799 297.003C282.559 299.743 283.279 305.213 279.129 307.633L196.299 354.943C191.949 357.473 186.609 357.643 182.099 355.393L100.389 308.073C95.1791 304.963 95.4791 300.103 99.1891 297.613Z" fill="url(#paint7_linear)"/>
<path opacity="0.4" d="M271.26 279.552L271.13 75.8422C270.83 77.0222 270.08 78.0922 268.81 78.8322L195.57 120.652C191.72 122.892 187 123.042 183.02 121.052L110.78 79.2122C108.75 78.0022 107.67 76.4922 107.37 74.9922L107.33 278.162C106.95 280.162 107.94 282.402 110.74 284.072L182.98 325.912C186.96 327.902 191.68 327.752 195.53 325.512L268.77 283.692C270.45 282.712 271.21 281.162 271.26 279.552Z" fill="url(#paint8_linear)"/>
<path d="M109.42 274.962L183.21 232.912C187.13 230.632 191.93 230.492 195.98 232.522L268.23 274.432C271.55 276.852 272.19 281.692 268.52 283.832L195.28 325.652C191.43 327.892 186.71 328.042 182.73 326.052L110.49 284.212C105.87 281.452 106.13 277.152 109.42 274.962Z" fill="url(#paint9_linear)"/>
<path d="M271.04 279.262C271.14 281.032 270.39 282.752 268.56 283.822L195.32 325.642C191.47 327.882 186.75 328.032 182.77 326.042L110.53 284.202C108.34 282.892 107.26 281.242 107.07 279.622V300.172C106.48 302.252 107.42 304.672 110.39 306.442L182.63 348.282C186.61 350.272 191.33 350.122 195.18 347.882L268.42 306.062C270.24 305.002 271 303.272 270.9 301.502L271.08 279.262H271.04V279.262Z" fill="url(#paint10_linear)"/>
<path d="M109.42 256.023L183.21 213.973C187.13 211.693 191.93 211.553 195.98 213.583L268.23 255.493C271.55 257.913 272.19 262.753 268.52 264.893L195.28 306.713C191.43 308.953 186.71 309.103 182.73 307.113L110.49 265.273C105.87 262.523 106.13 258.223 109.42 256.023Z" fill="url(#paint11_linear)"/>
<g opacity="0.7">
<path opacity="0.7" d="M189.21 186.092C187.12 186.092 185.03 185.612 183.09 184.642L110.82 142.782C108.47 141.382 107.15 139.482 107.1 137.432C107.05 135.622 108.01 133.922 109.74 132.772L109.77 132.752L183.56 90.7019C187.62 88.3419 192.56 88.1919 196.76 90.3019L269.039 132.222C271.019 133.662 272.149 135.892 272.039 138.072C271.949 139.912 270.98 141.452 269.33 142.412L196.09 184.242C193.95 185.462 191.58 186.092 189.21 186.092ZM110.229 133.542C108.779 134.512 107.97 135.922 108.01 137.412C108.06 139.142 109.22 140.772 111.28 142.002L183.52 183.842C187.36 185.762 191.889 185.612 195.609 183.442L268.849 141.612C270.219 140.812 271.019 139.532 271.099 138.022C271.199 136.152 270.21 134.222 268.52 132.982L196.31 91.1019C192.41 89.1419 187.8 89.2919 184 91.4919L110.229 133.542Z" fill="url(#paint12_linear)"/>
</g>
<path opacity="0.7" d="M109.88 70.2629L183.67 28.2129C187.59 25.9329 192.39 25.7929 196.44 27.8229L268.69 69.7329C272.01 72.1529 272.65 76.9929 268.98 79.1329L195.74 120.953C191.89 123.193 187.17 123.343 183.19 121.353L110.95 79.5129C106.34 76.7529 106.6 72.4529 109.88 70.2629Z" fill="url(#paint13_linear)"/>
<path d="M189.839 106.503C187.749 106.503 185.659 106.023 183.719 105.053L111.449 63.1931C109.099 61.7931 107.779 59.8931 107.729 57.8431C107.679 56.0331 108.639 54.3331 110.369 53.1831L110.399 53.1631L184.189 11.1131C188.249 8.75306 193.189 8.60306 197.389 10.7131L269.669 52.6331C271.649 54.0731 272.779 56.3031 272.669 58.4831C272.579 60.3231 271.609 61.8631 269.959 62.8231L196.719 104.653C194.579 105.873 192.209 106.503 189.839 106.503ZM110.859 53.9531C109.409 54.9231 108.599 56.3331 108.639 57.8231C108.689 59.5531 109.849 61.1831 111.909 62.4131L184.149 104.253C187.989 106.173 192.519 106.023 196.239 103.853L269.479 62.0231C270.849 61.2231 271.649 59.9431 271.729 58.4331C271.829 56.5631 270.839 54.6331 269.149 53.3931L196.939 11.5131C193.039 9.55306 188.429 9.70306 184.629 11.9031L110.859 53.9531Z" fill="url(#paint14_linear)"/>
<path d="M189.839 97.2726C187.749 97.2726 185.659 96.7926 183.719 95.8226L111.449 53.9626C109.099 52.5626 107.779 50.6626 107.729 48.6126C107.679 46.8026 108.639 45.1026 110.369 43.9526L110.399 43.9326L184.189 1.88259C188.249 -0.477406 193.189 -0.627408 197.389 1.48259L269.669 43.4026C271.649 44.8426 272.779 47.0726 272.669 49.2526C272.579 51.0926 271.609 52.6326 269.959 53.5926L196.719 95.4226C194.579 96.6526 192.209 97.2726 189.839 97.2726ZM110.859 44.7226C109.409 45.6926 108.599 47.1026 108.639 48.5926C108.689 50.3226 109.849 51.9526 111.909 53.1826L184.149 95.0226C187.989 96.9426 192.519 96.7926 196.239 94.6226L269.479 52.7926C270.849 51.9926 271.649 50.7126 271.729 49.2026C271.829 47.3326 270.839 45.4026 269.149 44.1626L196.939 2.28259C193.039 0.322591 188.429 0.472594 184.629 2.67259L110.859 44.7226Z" fill="url(#paint15_linear)"/>
<path d="M57.7598 130.373L99.2498 153.483V233.973L57.7598 210.553V130.373Z" fill="url(#paint16_linear)"/>
<path d="M59.7002 127.993L100.33 150.573L161.27 116.053L121.18 93.623L59.7002 127.993Z" fill="url(#paint17_linear)"/>
<path d="M119.24 142.973V175.133L162.25 199.903V118.753L119.24 142.973Z" fill="url(#paint18_linear)"/>
<path d="M137.95 175.413L179.44 198.533V279.023L137.95 255.603V175.413Z" fill="url(#paint19_linear)"/>
<path d="M139.891 173.043L180.521 195.613L241.461 161.103L201.371 138.673L139.891 173.043Z" fill="url(#paint20_linear)"/>
<path d="M199.43 188.023V220.183L242.44 244.953V163.803L199.43 188.023Z" fill="url(#paint21_linear)"/>
<path d="M154.98 185.163L196.47 208.273V288.763L154.98 265.343V185.163Z" fill="url(#paint22_linear)"/>
<path d="M156.921 182.783L197.551 205.363L258.491 170.853L218.401 148.423L156.921 182.783Z" fill="url(#paint23_linear)"/>
<path d="M216.461 197.763V229.923L259.471 254.703V173.543L216.461 197.763Z" fill="url(#paint24_linear)"/>
<path d="M226.44 226.903L267.94 250.013V330.503L226.44 307.083V226.903Z" fill="url(#paint25_linear)"/>
<path d="M228.391 224.523L269.021 247.103L329.961 212.583L289.871 190.153L228.391 224.523Z" fill="url(#paint26_linear)"/>
<path d="M287.931 239.503V271.663L330.941 296.433V215.283L287.931 239.503Z" fill="url(#paint27_linear)"/>
<path d="M323.94 364.252L281.44 340.272V258.942L323.94 282.612V364.252ZM282.45 339.682L322.95 362.532V283.192L282.45 260.632V339.682Z" fill="url(#paint28_linear)"/>
<path d="M324.52 280.563L324.27 280.423L282.86 257.413L345.37 222.473L386.48 245.473L324.52 280.563ZM284.92 257.413L324.52 279.413L384.44 245.473L345.37 223.613L284.92 257.413Z" fill="url(#paint29_linear)"/>
<path d="M386.941 330.192L342.931 304.842V272.102L386.941 247.322V330.192V330.192ZM343.931 304.262L385.941 328.462V249.032L343.931 272.692V304.262Z" fill="url(#paint30_linear)"/>
<path d="M42.5 201.403L0 177.413V96.083L42.5 119.753V201.403ZM1 176.833L41.5 199.683V120.343L1 97.793V176.833Z" fill="url(#paint31_linear)"/>
<path d="M43.0799 117.713L1.41992 94.563L63.9299 59.623L64.1699 59.763L105.03 82.623L43.0799 117.713ZM3.47992 94.563L43.0799 116.563L103 82.633L63.9299 60.773L3.47992 94.563Z" fill="url(#paint32_linear)"/>
<path d="M105.5 167.343L61.4902 141.993V109.253L61.7402 109.113L105.49 84.4727V167.343H105.5ZM62.4902 141.413L104.5 165.613V86.1827L62.4902 109.843V141.413Z" fill="url(#paint33_linear)"/>
<defs>
<linearGradient id="paint0_linear" x1="550.493" y1="389.843" x2="107.245" y2="337.876" gradientUnits="userSpaceOnUse">
<stop stop-color="#4F24FF"/>
<stop offset="1" stop-color="#13FFE2"/>
</linearGradient>
<linearGradient id="paint1_linear" x1="194.924" y1="312.841" x2="182.45" y2="312.841" gradientUnits="userSpaceOnUse">
<stop stop-color="#C3ACFF"/>
<stop offset="1" stop-color="#DCCFFF"/>
</linearGradient>
<linearGradient id="paint2_linear" x1="260.87" y1="332.327" x2="256.443" y2="324.515" gradientUnits="userSpaceOnUse">
<stop stop-color="white"/>
<stop offset="1"/>
</linearGradient>
<linearGradient id="paint3_linear" x1="217.217" y1="357.262" x2="213.934" y2="351.468" gradientUnits="userSpaceOnUse">
<stop stop-color="#3300BF"/>
<stop offset="1" stop-color="#C0ABFF"/>
</linearGradient>
<linearGradient id="paint4_linear" x1="166.524" y1="362.637" x2="171.93" y2="353.339" gradientUnits="userSpaceOnUse">
<stop stop-color="white"/>
<stop offset="1"/>
</linearGradient>
<linearGradient id="paint5_linear" x1="160.033" y1="358.243" x2="162.828" y2="353.437" gradientUnits="userSpaceOnUse">
<stop stop-color="#3300BF"/>
<stop offset="1" stop-color="#C0ABFF"/>
</linearGradient>
<linearGradient id="paint6_linear" x1="450.753" y1="549.529" x2="183.677" y2="297.547" gradientUnits="userSpaceOnUse">
<stop stop-color="#9C74FF"/>
<stop offset="1" stop-color="#FFF6FF"/>
</linearGradient>
<linearGradient id="paint7_linear" x1="63.7112" y1="199.121" x2="232.378" y2="337.787" gradientUnits="userSpaceOnUse">
<stop stop-color="#FFFF61"/>
<stop offset="1" stop-color="#FF6400"/>
</linearGradient>
<linearGradient id="paint8_linear" x1="189.25" y1="-108.504" x2="189.25" y2="311.208" gradientUnits="userSpaceOnUse">
<stop stop-color="#4F24FF"/>
<stop offset="1" stop-color="#13FFE2"/>
</linearGradient>
<linearGradient id="paint9_linear" x1="348.924" y1="279.081" x2="105.79" y2="279.358" gradientUnits="userSpaceOnUse">
<stop stop-color="#4F24FF"/>
<stop offset="1" stop-color="#13FFE2"/>
</linearGradient>
<linearGradient id="paint10_linear" x1="195.339" y1="314.468" x2="181.662" y2="314.468" gradientUnits="userSpaceOnUse">
<stop stop-color="#3BC3FF"/>
<stop offset="1" stop-color="#A7FFE2"/>
</linearGradient>
<linearGradient id="paint11_linear" x1="345.6" y1="260.327" x2="103.836" y2="260.327" gradientUnits="userSpaceOnUse">
<stop stop-color="#4F24FF"/>
<stop offset="1" stop-color="#13FFE2"/>
</linearGradient>
<linearGradient id="paint12_linear" x1="550.493" y1="179.73" x2="107.244" y2="127.763" gradientUnits="userSpaceOnUse">
<stop stop-color="#4F24FF"/>
<stop offset="1" stop-color="#13FFE2"/>
</linearGradient>
<linearGradient id="paint13_linear" x1="590.784" y1="74.5614" x2="28.7801" y2="74.5614" gradientUnits="userSpaceOnUse">
<stop stop-color="#4F24FF"/>
<stop offset="1" stop-color="#13FFE2"/>
</linearGradient>
<linearGradient id="paint14_linear" x1="551.122" y1="100.141" x2="107.873" y2="48.1736" gradientUnits="userSpaceOnUse">
<stop stop-color="#4F24FF"/>
<stop offset="1" stop-color="#13FFE2"/>
</linearGradient>
<linearGradient id="paint15_linear" x1="551.122" y1="90.9122" x2="107.873" y2="38.9451" gradientUnits="userSpaceOnUse">
<stop stop-color="#4F24FF"/>
<stop offset="1" stop-color="#13FFE2"/>
</linearGradient>
<linearGradient id="paint16_linear" x1="185.481" y1="324.112" x2="53.481" y2="148.779" gradientUnits="userSpaceOnUse">
<stop stop-color="#4F24FF"/>
<stop offset="1" stop-color="#13FFE2"/>
</linearGradient>
<linearGradient id="paint17_linear" x1="234.72" y1="287.042" x2="102.72" y2="111.709" gradientUnits="userSpaceOnUse">
<stop stop-color="#4F24FF"/>
<stop offset="1" stop-color="#13FFE2"/>
</linearGradient>
<linearGradient id="paint18_linear" x1="242.063" y1="281.515" x2="110.063" y2="106.181" gradientUnits="userSpaceOnUse">
<stop stop-color="#4F24FF"/>
<stop offset="1" stop-color="#13FFE2"/>
</linearGradient>
<linearGradient id="paint19_linear" x1="111.138" y1="169.106" x2="196.471" y2="273.106" gradientUnits="userSpaceOnUse">
<stop stop-color="#FFFF61"/>
<stop offset="1" stop-color="#FF6400"/>
</linearGradient>
<linearGradient id="paint20_linear" x1="159.671" y1="129.284" x2="245.004" y2="233.284" gradientUnits="userSpaceOnUse">
<stop stop-color="#FFFF61"/>
<stop offset="1" stop-color="#FF6400"/>
</linearGradient>
<linearGradient id="paint21_linear" x1="165.538" y1="124.47" x2="250.871" y2="228.47" gradientUnits="userSpaceOnUse">
<stop stop-color="#FFFF61"/>
<stop offset="1" stop-color="#FF6400"/>
</linearGradient>
<linearGradient id="paint22_linear" x1="282.7" y1="378.905" x2="150.7" y2="203.572" gradientUnits="userSpaceOnUse">
<stop stop-color="#4F24FF"/>
<stop offset="1" stop-color="#13FFE2"/>
</linearGradient>
<linearGradient id="paint23_linear" x1="331.939" y1="341.834" x2="199.939" y2="166.501" gradientUnits="userSpaceOnUse">
<stop stop-color="#4F24FF"/>
<stop offset="1" stop-color="#13FFE2"/>
</linearGradient>
<linearGradient id="paint24_linear" x1="339.282" y1="336.307" x2="207.282" y2="160.974" gradientUnits="userSpaceOnUse">
<stop stop-color="#4F24FF"/>
<stop offset="1" stop-color="#13FFE2"/>
</linearGradient>
<linearGradient id="paint25_linear" x1="354.168" y1="420.641" x2="222.168" y2="245.308" gradientUnits="userSpaceOnUse">
<stop stop-color="#4F24FF"/>
<stop offset="1" stop-color="#13FFE2"/>
</linearGradient>
<linearGradient id="paint26_linear" x1="403.406" y1="383.571" x2="271.407" y2="208.238" gradientUnits="userSpaceOnUse">
<stop stop-color="#4F24FF"/>
<stop offset="1" stop-color="#13FFE2"/>
</linearGradient>
<linearGradient id="paint27_linear" x1="410.749" y1="378.044" x2="278.75" y2="202.711" gradientUnits="userSpaceOnUse">
<stop stop-color="#4F24FF"/>
<stop offset="1" stop-color="#13FFE2"/>
</linearGradient>
<linearGradient id="paint28_linear" x1="335.756" y1="355.356" x2="269.782" y2="267.723" gradientUnits="userSpaceOnUse">
<stop stop-color="#4F24FF"/>
<stop offset="1" stop-color="#13FFE2"/>
</linearGradient>
<linearGradient id="paint29_linear" x1="350.545" y1="272.532" x2="318.799" y2="230.365" gradientUnits="userSpaceOnUse">
<stop stop-color="#4F24FF"/>
<stop offset="1" stop-color="#13FFE2"/>
</linearGradient>
<linearGradient id="paint30_linear" x1="398.9" y1="321.193" x2="355.067" y2="262.969" gradientUnits="userSpaceOnUse">
<stop stop-color="#4F24FF"/>
<stop offset="1" stop-color="#13FFE2"/>
</linearGradient>
<linearGradient id="paint31_linear" x1="54.3148" y1="192.504" x2="-11.6597" y2="104.871" gradientUnits="userSpaceOnUse">
<stop stop-color="#4F24FF"/>
<stop offset="1" stop-color="#13FFE2"/>
</linearGradient>
<linearGradient id="paint32_linear" x1="69.1031" y1="109.679" x2="37.3577" y2="67.5123" gradientUnits="userSpaceOnUse">
<stop stop-color="#4F24FF"/>
<stop offset="1" stop-color="#13FFE2"/>
</linearGradient>
<linearGradient id="paint33_linear" x1="117.458" y1="158.34" x2="73.624" y2="100.116" gradientUnits="userSpaceOnUse">
<stop stop-color="#4F24FF"/>
<stop offset="1" stop-color="#13FFE2"/>
</linearGradient>
</defs>
</svg>
